<?xml version="1.0" encoding="utf-8"?>
<!-- Generator: Adobe Illustrator 20.1.0, SVG Export Plug-In . SVG Version: 6.00 Build 0)  -->
<svg version="1.1" id="Слой_1" xmlns="http://www.w3.org/2000/svg" xmlns:xlink="http://www.w3.org/1999/xlink" x="0px" y="0px"
	 viewBox="0 0 16 16" style="enable-background:new 0 0 16 16;" xml:space="preserve">
<g>
	<path d="M15,0H1C0.4,0,0,0.4,0,1v3.7c0,0.6,0.5,1,1,1s1-0.5,1-1V2.1h11.9v11.9H2.1v-2.7c0-0.6-0.5-1-1-1s-1,0.5-1,1V15
		c0,0.6,0.4,1,1,1H15c0.6,0,1-0.4,1-1V1C16,0.4,15.6,0,15,0z"/>
	<path d="M0.3,7.2C0.1,7.4,0,7.7,0,8c0,0.6,0.4,1,1,1h7.7l-1.5,1.5C7.1,10.7,7,10.9,7,11.3c0,0.2,0.1,0.5,0.3,0.7
		c0.2,0.2,0.4,0.3,0.7,0.3c0.2,0,0.5-0.1,0.7-0.3L12,8.7c0.4-0.4,0.4-1,0-1.4L8.8,4c-0.4-0.4-1-0.4-1.4,0C7.2,4.2,7.1,4.5,7.1,4.8
		c0,0.2,0.1,0.5,0.3,0.7L8.8,7L1.1,7C0.8,7,0.5,7.1,0.3,7.2z"/>
</g>
</svg>
