<?xml version="1.0" encoding="utf-8"?>
<!-- Generator: Adobe Illustrator 20.1.0, SVG Export Plug-In . SVG Version: 6.00 Build 0)  -->
<svg version="1.1" id="Layer_1" xmlns="http://www.w3.org/2000/svg" xmlns:xlink="http://www.w3.org/1999/xlink" x="0px" y="0px"
	 viewBox="0 0 480 420" style="enable-background:new 0 0 480 420;" xml:space="preserve">
<g>
	<g>
		<path d="M470.3,0H9.7C4.3,0,0,4.3,0,9.7v318.8c0,5.3,4.3,9.7,9.7,9.7h86.9v72.3c0,3.9,2.4,7.4,6,8.9c1.2,0.5,2.4,0.7,3.7,0.7
			c2.5,0,5-0.9,6.8-2.8l55.1-79.1h302.1c5.3,0,9.7-4.3,9.7-9.7V9.7C480,4.3,475.7,0,470.3,0z M460.7,318.8H164.2c-2.6,0-5,1-6.8,2.8
			l-41.5,58.5v-51.6c0-5.3-4.3-9.7-9.7-9.7H19.3V19.3h441.4L460.7,318.8L460.7,318.8z"/>
	</g>
</g>
</svg>
