<?xml version="1.0" encoding="utf-8"?>
<!-- Generator: Adobe Illustrator 20.1.0, SVG Export Plug-In . SVG Version: 6.00 Build 0)  -->
<svg version="1.1" id="Calque_1" xmlns="http://www.w3.org/2000/svg" xmlns:xlink="http://www.w3.org/1999/xlink" x="0px" y="0px"
	 viewBox="0 0 23 25" style="enable-background:new 0 0 23 25;" xml:space="preserve">
<style type="text/css">
	.st0{fill:#009FCB;}
</style>
<path class="st0" d="M9,10v5h5v-5H9z M13,14H10v-3H13V14z"/>
<path class="st0" d="M15,10v5h5v-5H15z M19,14H16v-3H19V14z"/>
<path class="st0" d="M21,2h-4V0h-1v2H7V0H6v2H2C0.9,2,0,2.9,0,4v19c0,1.1,0.9,2,2,2h19c1.1,0,2-0.9,2-2V4C23,2.9,22.1,2,21,2z
	 M22,23c0,0.6-0.4,1-1,1H2c-0.6,0-1-0.4-1-1V8h21V23z M22,7H1V4c0-0.6,0.4-1,1-1h4v1h1V3h9v1h1V3h4c0.6,0,1,0.4,1,1V7z"/>
<path class="st0" d="M3,10v5h5v-5H3z M7,14H4v-3H7V14z"/>
<path class="st0" d="M9,17v5h5v-5H9z M13,21H10v-3H13V21z"/>
<path class="st0" d="M15,17v5h5v-5H15z M19,21H16v-3H19V21z"/>
<path class="st0" d="M3,17v5h5v-5H3z M7,21H4v-3H7V21z"/>
</svg>
