<?xml version="1.0" encoding="utf-8"?>
<!-- Generator: Adobe Illustrator 20.1.0, SVG Export Plug-In . SVG Version: 6.00 Build 0)  -->
<svg version="1.1" id="Calque_2" xmlns="http://www.w3.org/2000/svg" xmlns:xlink="http://www.w3.org/1999/xlink" x="0px" y="0px"
	 viewBox="0 0 16 16" style="enable-background:new 0 0 16 16;" xml:space="preserve">
<style type="text/css">
	.st0{fill:#FFFFFF;}
</style>
<path class="st0" d="M15.9,15.2l-4.4-4.4c2.2-2.6,2.1-6.4-0.3-8.8c-2.5-2.5-6.7-2.5-9.2,0s-2.5,6.7,0,9.2c2.4,2.4,6.3,2.5,8.8,0.3
	l4.4,4.4c0.2,0.2,0.5,0.2,0.7,0C16,15.7,16,15.4,15.9,15.2z M2.6,10.4c-2.1-2.1-2.1-5.6,0-7.8c2.1-2.1,5.6-2.1,7.8,0
	c2.1,2.1,2.1,5.6,0,7.8C8.2,12.5,4.8,12.5,2.6,10.4z"/>
</svg>
