<?xml version="1.0" encoding="utf-8"?>
<!-- Generator: Adobe Illustrator 20.1.0, SVG Export Plug-In . SVG Version: 6.00 Build 0)  -->
<svg version="1.1" id="Calque_1" xmlns="http://www.w3.org/2000/svg" xmlns:xlink="http://www.w3.org/1999/xlink" x="0px" y="0px"
	 viewBox="0 0 126 126" style="enable-background:new 0 0 126 126;" xml:space="preserve">
<circle cx="63" cy="63" r="45"/>
<g>
	<path d="M63,0c-1.1,0-2,0.9-2,2v8c0,1.1,0.9,2,2,2c1.1,0,2-0.9,2-2V2C65,0.9,64.1,0,63,0z"/>
	<path d="M63,114c-1.1,0-2,0.9-2,2v8c0,1.1,0.9,2,2,2c1.1,0,2-0.9,2-2v-8C65,114.9,64.1,114,63,114z"/>
	<path d="M12,63c0-1.1-0.9-2-2-2H2c-1.1,0-2,0.9-2,2s0.9,2,2,2h8C11.1,65,12,64.1,12,63z M11,63L11,63L11,63L11,63z"/>
	<path d="M124,61h-8c-1.1,0-2,0.9-2,2s0.9,2,2,2h8c1.1,0,2-0.9,2-2S125.1,61,124,61z"/>
	<path d="M21.3,18.5c-0.8-0.8-2.1-0.8-2.8,0c-0.8,0.8-0.8,2,0,2.8l5.7,5.7c0.4,0.4,0.9,0.6,1.4,0.6c0.5,0,1-0.2,1.4-0.6
		c0.4-0.4,0.6-0.9,0.6-1.4c0-0.5-0.2-1-0.6-1.4L21.3,18.5z"/>
	<path d="M101.9,99.1c-0.8-0.8-2-0.8-2.8,0c-0.4,0.4-0.6,0.9-0.6,1.4s0.2,1,0.6,1.4l5.7,5.7c0.4,0.4,0.9,0.6,1.4,0.6
		c0.5,0,1-0.2,1.4-0.6c0.4-0.4,0.6-0.9,0.6-1.4c0-0.5-0.2-1-0.6-1.4L101.9,99.1z"/>
	<path d="M104.7,18.5l-5.7,5.7c-0.4,0.4-0.6,0.9-0.6,1.4c0,0.5,0.2,1,0.6,1.4c0.4,0.4,0.9,0.6,1.4,0.6c0.5,0,1-0.2,1.4-0.6l5.7-5.7
		c0.4-0.4,0.6-0.9,0.6-1.4s-0.2-1-0.6-1.4C106.8,17.7,105.5,17.7,104.7,18.5z"/>
	<path d="M24.1,99.1l-5.7,5.7c-0.4,0.4-0.6,0.9-0.6,1.4c0,0.5,0.2,1,0.6,1.4h0c0.4,0.4,0.9,0.6,1.4,0.6s1-0.2,1.4-0.6l5.7-5.7
		c0.4-0.4,0.6-0.9,0.6-1.4s-0.2-1-0.6-1.4C26.2,98.3,24.9,98.3,24.1,99.1z"/>
	<path d="M41.5,5.9c-0.4-1-1.6-1.5-2.6-1.1c-1,0.4-1.5,1.6-1.1,2.6l3.1,7.4c0.3,0.8,1.1,1.2,1.9,1.2c0.3,0,0.5,0,0.8-0.2h0
		c0.5-0.2,0.9-0.6,1.1-1.1c0.2-0.5,0.2-1,0-1.5L41.5,5.9z"/>
	<path d="M85.1,111.2c-0.4-1-1.6-1.5-2.6-1.1c-1,0.4-1.5,1.6-1.1,2.6l3.1,7.4c0.3,0.8,1.1,1.2,1.9,1.2c0.3,0,0.5,0,0.8-0.2
		c0.5-0.2,0.9-0.6,1.1-1.1c0.2-0.5,0.2-1,0-1.5L85.1,111.2z"/>
	<path d="M14.8,40.9l-7.4-3.1c-0.5-0.2-1-0.2-1.5,0C5.4,38,5,38.4,4.8,38.9c-0.2,0.5-0.2,1,0,1.5c0.2,0.5,0.6,0.9,1.1,1.1l7.4,3.1
		c0.2,0.1,0.5,0.2,0.8,0.2c0.3,0,0.5-0.1,0.8-0.2c0.5-0.2,0.9-0.6,1.1-1.1C16.3,42.5,15.8,41.3,14.8,40.9z"/>
	<path d="M120.1,84.5l-7.4-3.1c-0.5-0.2-1-0.2-1.5,0c-0.5,0.2-0.9,0.6-1.1,1.1c-0.2,0.5-0.2,1,0,1.5s0.6,0.9,1.1,1.1l7.4,3.1
		c0.2,0.1,0.5,0.2,0.8,0.2s0.5-0.1,0.8-0.2c0.5-0.2,0.9-0.6,1.1-1.1c0.2-0.5,0.2-1,0-1.5S120.6,84.7,120.1,84.5z"/>
	<path d="M111.2,44.6c0.2,0.1,0.5,0.2,0.8,0.2c0.3,0,0.5-0.1,0.8-0.2l7.4-3.1c1-0.4,1.5-1.6,1.1-2.6c-0.4-1-1.6-1.5-2.6-1.1
		l-7.4,3.1c-1,0.4-1.5,1.6-1.1,2.6C110.3,44,110.7,44.4,111.2,44.6z M111,43.1L111,43.1L111,43.1L111,43.1z"/>
	<path d="M13.3,81.4l-7.4,3.1c-1,0.4-1.5,1.6-1.1,2.6C5,87.6,5.4,88,5.9,88.2c0.2,0.1,0.5,0.2,0.8,0.2c0.3,0,0.5-0.1,0.8-0.2
		l7.4-3.1c1-0.4,1.5-1.6,1.1-2.6C15.5,81.5,14.3,81,13.3,81.4z"/>
	<path d="M87.1,4.8c-0.5-0.2-1-0.2-1.5,0c-0.5,0.2-0.9,0.6-1.1,1.1l-3.1,7.4c-0.2,0.5-0.2,1,0,1.5c0.2,0.5,0.6,0.9,1.1,1.1
		C82.8,16,83,16,83.3,16c0.3,0,0.5-0.1,0.8-0.2c0.5-0.2,0.9-0.6,1.1-1.1l3.1-7.4c0.2-0.5,0.2-1,0-1.5S87.6,5,87.1,4.8z"/>
	<path d="M43.5,110.1c-0.5-0.2-1-0.2-1.5,0s-0.9,0.6-1.1,1.1l-3.1,7.4c-0.2,0.5-0.2,1,0,1.5c0.2,0.5,0.6,0.9,1.1,1.1h0
		c0.2,0.1,0.5,0.2,0.8,0.2c0.8,0,1.5-0.5,1.9-1.2l3.1-7.4c0.2-0.5,0.2-1,0-1.5C44.4,110.7,44,110.3,43.5,110.1z"/>
</g>
</svg>
